HIERARCHY
ROOT Hips
{
	OFFSET -3.003445 105.600998 -6.138755
	CHANNELS 6 Xposition Yposition Zposition Xrotation Yrotation Zrotation
	JOINT Chest
	{
		OFFSET 3.428939 13.185799 -0.728956
		CHANNELS 3 Xrotation Yrotation Zrotation
		JOINT Chest2
		{
			OFFSET 2.735851 21.246513 0.409142
			CHANNELS 3 Xrotation Yrotation Zrotation
			JOINT Chest3
			{
				OFFSET 4.264594 14.287308 0.711254
				CHANNELS 3 Xrotation Yrotation Zrotation
				JOINT Neck
				{
					OFFSET 2.980939 17.019150 -0.280176
					CHANNELS 3 Xrotation Yrotation Zrotation
					JOINT Head
					{
						OFFSET 0.368670 10.083725 2.830222
						CHANNELS 3 Xrotation Yrotation Zrotation
						End Site
						{
							OFFSET 0.407409 10.098907 2.770125
						}
					}
				}
				JOINT LeftCollar
				{
					OFFSET 4.898324 12.672134 4.150616
					CHANNELS 3 Xrotation Yrotation Zrotation
					JOINT LeftUpArm
					{
						OFFSET 17.505196 -1.437790 0.018092
						CHANNELS 3 Xrotation Yrotation Zrotation
						JOINT LeftLowArm
						{
							OFFSET 29.643782 -0.580307 16.144279
							CHANNELS 3 Xrotation Yrotation Zrotation
							JOINT LeftHand
							{
								OFFSET -24.966381 12.802185 10.664496
								CHANNELS 3 Xrotation Yrotation Zrotation
								End Site
								{
									OFFSET -5.456551 2.797989 2.330791
								}
							}
						}
					}
				}
				JOINT RightCollar
				{
					OFFSET -2.659328 13.938721 0.669703
					CHANNELS 3 Xrotation Yrotation Zrotation
					JOINT RightUpArm
					{
						OFFSET -13.186758 0.121613 -11.601336
						CHANNELS 3 Xrotation Yrotation Zrotation
						JOINT RightLowArm
						{
							OFFSET -31.273933 0.554367 12.703078
							CHANNELS 3 Xrotation Yrotation Zrotation
							JOINT RightHand
							{
								OFFSET 18.903845 17.173859 15.768926
								CHANNELS 3 Xrotation Yrotation Zrotation
								End Site
								{
									OFFSET 4.131624 3.753510 3.446453
								}
							}
						}
					}
				}
			}
		}
	}
	JOINT LeftUpLeg
	{
		OFFSET 5.795004 -1.059036 8.106511
		CHANNELS 3 Xrotation Yrotation Zrotation
		JOINT LeftLowLeg
		{
			OFFSET -38.689831 -17.462593 21.027227
			CHANNELS 3 Xrotation Yrotation Zrotation
			JOINT LeftFoot
			{
				OFFSET -35.371105 -23.980869 13.204941
				CHANNELS 3 Xrotation Yrotation Zrotation
				JOINT LeftToe
				{
					OFFSET -23.059723 -4.646389 2.493931
					CHANNELS 3 Xrotation Yrotation Zrotation
					End Site
					{
						OFFSET -19.587898 9.246933 9.506184
					}
				}
			}
		}
	}
	JOINT RightUpLeg
	{
		OFFSET -5.795056 1.058846 -8.106504
		CHANNELS 3 Xrotation Yrotation Zrotation
		JOINT RightLowLeg
		{
			OFFSET -5.274252 -47.013084 -2.441976
			CHANNELS 3 Xrotation Yrotation Zrotation
			JOINT RightFoot
			{
				OFFSET 17.871437 -40.321110 -7.443062
				CHANNELS 3 Xrotation Yrotation Zrotation
				JOINT RightToe
				{
					OFFSET -11.171984 -19.289228 7.916384
					CHANNELS 3 Xrotation Yrotation Zrotation
					End Site
					{
						OFFSET -21.616802 -7.369825 6.160818
					}
				}
			}
		}
	}
}
MOTION
Frames: 18
Frame Time: 0.033333
-2.327145 103.805283 -7.343172 -10.537991 -1.969903 -7.332390 10.170782 -1.854657 3.912015 2.129822 -0.258733 2.241309 -2.386867 2.270145 -1.048780 5.722324 1.191070 0.174165 -0.000000 -0.000002 -0.000000 4.135958 -4.559512 -1.432743 4.237880 2.933332 0.004765 32.383409 4.986127 -3.497231 0.000003 -0.000000 0.000002 1.346331 4.471108 7.462102 3.734307 0.015691 10.447982 49.606745 13.560379 0.276478 0.000003 0.000002 -0.000001 -13.654936 9.850355 -2.776458 2.367736 -11.368070 -8.149036 5.614783 -2.303987 6.689408 -0.000000 0.000002 -0.000001 4.565850 -0.865977 1.726414 7.008496 2.216703 11.981611 -0.524125 -5.961384 -0.722600 -0.000000 -0.000001 -0.000002 
-2.331357 103.714851 -7.399402 -11.013954 -2.140050 -7.703783 10.106604 -1.823707 4.116794 1.945859 -0.340856 2.328604 -2.050179 2.393012 -1.118882 6.174940 1.382171 0.069210 -0.000003 -0.000002 -0.000001 4.089133 -4.088826 -1.749016 4.161527 2.822142 -0.188495 33.775186 4.299068 -3.101400 -0.000002 -0.000001 0.000001 1.443285 5.158946 7.760461 3.589374 -0.547886 10.870643 51.314422 13.932209 0.573894 -0.000001 0.000000 0.000002 -14.059724 10.193417 -2.517938 2.476864 -12.182628 -8.889525 6.126046 -1.566147 6.971048 -0.000003 0.000001 0.000000 4.739667 -0.917524 2.000063 7.237305 2.308345 12.359660 -0.713698 -6.515644 -0.762196 -0.000002 0.000000 -0.000000 
-2.347022 103.626404 -7.453609 -11.547865 -2.200749 -8.010254 10.066748 -1.792723 4.152979 2.194747 -0.359160 2.554396 -2.044521 2.642551 -1.181585 6.029950 1.249741 0.098439 -0.000000 -0.000000 0.000001 4.063847 -4.227264 -1.892867 4.078701 3.339531 -0.467504 34.934369 3.811176 -3.074600 -0.000003 -0.000003 0.000005 0.861610 4.577640 8.043016 3.387178 -0.376670 11.337640 53.865898 14.644390 0.977368 -0.000001 0.000003 0.000004 -14.332814 10.355926 -2.432607 2.147063 -11.543267 -8.832638 5.878882 -1.570697 6.822969 0.000002 -0.000002 0.000002 5.589388 -1.089407 2.258768 7.362463 2.376316 12.444717 -0.776074 -6.442292 -0.844255 0.000000 -0.000002 0.000002 
-2.362483 103.546761 -7.507606 -11.852615 -2.522132 -8.249674 9.993422 -1.759834 4.154378 2.393061 -0.234556 2.332420 -2.010872 3.183285 -0.835638 6.223330 1.144829 0.064168 0.000000 0.000000 -0.000000 4.089313 -4.546675 -1.895897 3.991124 3.672585 -0.632283 35.605708 3.634196 -3.133708 0.000006 -0.000003 0.000004 0.478887 4.104477 8.273709 3.258548 -0.508516 11.626380 55.708129 14.927764 1.450033 -0.000001 0.000000 -0.000002 -14.630692 10.661317 -2.214777 2.130608 -11.480338 -9.094008 5.829134 -1.899645 6.888322 -0.000000 0.000000 -0.000004 5.753559 -1.151279 2.452906 7.967339 2.475900 12.441249 -0.838601 -6.055414 -0.909593 -0.000001 0.000000 0.000001 
-2.390426 103.468117 -7.554292 -12.389839 -2.491375 -8.524325 10.600983 -1.829451 4.091803 1.393792 -0.544648 2.521565 -1.135631 3.427506 -0.824464 6.394543 1.287705 -0.146506 -0.000002 0.000000 -0.000000 3.825483 -4.481013 -1.996578 3.754723 3.569679 -0.816339 37.108097 3.587293 -3.453929 0.000003 -0.000003 0.000004 0.393672 4.697191 8.437637 2.967567 -0.882132 11.946456 57.111685 15.238301 1.910864 0.000001 0.000002 0.000003 -14.725051 10.720580 -2.038002 1.973808 -10.939006 -9.245707 5.771766 -2.374711 7.031524 -0.000001 0.000002 -0.000004 6.496304 -1.257015 2.628042 7.967378 2.452310 12.803015 -0.498133 -6.813334 -0.833772 0.000003 0.000000 0.000001 
-2.433002 103.393875 -7.599045 -12.602169 -2.629597 -8.737919 10.788360 -1.850590 3.897314 2.052045 -0.382086 2.456255 -1.688186 3.697425 -0.512406 6.482643 1.106741 -0.063262 -0.000002 0.000003 0.000001 3.730218 -4.789266 -1.976274 3.501498 3.601160 -0.926331 38.644343 3.423789 -3.651802 0.000003 -0.000003 0.000005 0.262773 4.800265 8.476640 2.687604 -1.188146 12.281713 58.055993 15.305354 2.383916 0.000002 0.000001 0.000001 -15.193223 11.188747 -1.793209 2.113977 -11.756090 -9.773185 6.157862 -1.779817 7.113535 -0.000002 0.000001 -0.000002 6.317993 -1.263582 2.888391 8.906079 2.749328 12.904323 -1.046732 -5.636174 -0.900391 -0.000000 -0.000000 -0.000002 
-2.475518 103.321220 -7.659179 -12.647116 -3.083947 -8.924447 10.529333 -1.807849 3.908649 3.121306 -0.188385 2.566877 -2.464014 3.383689 -0.669293 6.875084 1.542542 -0.137781 -0.000001 -0.000002 -0.000001 3.835611 -4.992934 -2.239407 3.142881 4.187301 -0.547106 39.103321 3.543324 -3.986693 0.000003 -0.000001 0.000001 0.428054 5.078530 8.506855 2.575354 -1.576360 12.204381 58.282837 15.355194 2.100138 -0.000000 -0.000003 -0.000001 -15.679056 11.722575 -1.473506 1.872357 -11.218615 -9.778699 6.334454 -1.920164 7.249956 -0.000004 0.000002 -0.000004 6.248831 -1.342205 2.892463 9.201617 3.020316 13.132848 -1.384444 -5.106884 -0.735319 -0.000000 0.000000 0.000002 
-2.525652 103.253784 -7.712913 -12.897672 -3.092282 -9.170653 10.447125 -1.779680 4.004679 3.509472 -0.133195 2.513028 -2.697489 3.520227 -0.587173 7.002210 1.276762 -0.053531 -0.000001 0.000000 -0.000001 3.716182 -4.893230 -2.196052 2.923468 4.259355 -0.686152 40.575907 3.084202 -3.909853 -0.000000 -0.000002 0.000001 0.142184 4.861862 8.524211 2.326754 -1.874111 12.304892 59.624553 15.868003 2.100061 -0.000000 0.000001 0.000006 -15.855528 11.956876 -1.290469 1.935317 -11.447132 -10.048844 6.233990 -1.529012 7.054554 -0.000000 0.000001 -0.000002 6.567832 -1.464935 3.153367 9.114513 2.858032 13.319879 -0.861157 -5.734388 -0.806953 -0.000002 -0.000000 -0.000002 
-2.581128 103.189545 -7.765149 -13.392556 -2.554639 -9.358225 11.121022 -1.889936 4.123928 2.859240 -0.291688 2.638374 -2.430580 3.318827 -0.597319 6.922122 1.356681 0.010073 0.000000 -0.000000 0.000000 3.625312 -4.421458 -2.139947 3.336597 3.943869 -0.849532 40.002622 3.425669 -3.839887 -0.000002 0.000002 -0.000002 0.272737 4.709361 8.456488 2.610739 -1.815011 12.312583 59.166295 15.534879 1.966269 -0.000001 -0.000001 0.000003 -15.869885 11.954444 -1.193888 2.059024 -11.748690 -10.244049 6.435445 -1.595979 7.381650 -0.000001 0.000000 -0.000003 7.340742 -1.547486 3.384073 8.760943 2.752995 13.689353 -0.771816 -6.410653 -0.825409 0.000002 0.000000 -0.000000 
-2.640846 103.123444 -7.812362 -13.584012 -2.653474 -9.483297 10.759153 -1.855925 4.197656 2.888277 -0.252992 2.608750 -2.117170 3.527905 -0.520965 6.976920 1.422085 0.021842 0.000002 0.000004 -0.000000 3.765444 -4.505264 -2.078200 3.560218 3.924303 -0.775714 39.260832 3.598935 -3.718153 0.000001 -0.000003 0.000003 0.255476 4.227168 8.342250 2.818145 -1.693696 12.279084 59.047552 15.456489 1.788056 0.000004 0.000003 0.000000 -16.444565 12.430006 -0.669479 1.947070 -11.707699 -10.476058 6.520390 -1.787832 7.552967 -0.000003 0.000000 -0.000003 7.622804 -1.545267 3.567673 8.971074 2.842694 13.719323 -0.741478 -6.453392 -0.794877 0.000000 0.000000 -0.000000 
-2.699997 103.053947 -7.855908 -13.726215 -1.985617 -9.413425 11.363122 -1.949610 4.164097 2.567747 -0.316718 2.603382 -2.043272 3.460826 -0.430535 6.909087 1.394455 0.101487 -0.000000 0.000001 0.000001 3.930114 -5.005661 -1.818296 3.510306 4.260690 -0.486592 39.103253 3.777673 -3.788997 0.000003 -0.000001 0.000003 0.221026 4.103218 8.486647 2.907698 -1.612648 11.955743 58.670676 15.210729 2.213879 0.000002 0.000001 0.000003 -16.316702 12.266105 -1.077689 2.118047 -12.404139 -10.673377 6.733764 -1.468333 7.573805 -0.000005 0.000001 -0.000004 7.759000 -1.550839 3.547584 8.897042 2.874249 13.943987 -0.562672 -7.041683 -0.818462 0.000001 0.000000 -0.000000 
-2.767829 102.979378 -7.897595 -13.868699 -1.792674 -9.504893 11.678125 -1.997693 4.232381 2.483848 -0.395096 2.726306 -2.194517 2.993464 -0.533011 6.685352 1.689458 -0.282561 -0.000002 -0.000002 -0.000001 3.808569 -4.491468 -1.744273 3.426183 4.025956 -0.338652 39.851866 4.113036 -4.234287 0.000001 -0.000002 0.000001 0.372158 4.478718 8.511737 2.898929 -1.797291 11.846698 58.935838 15.298987 2.139922 -0.000000 -0.000003 -0.000000 -16.569260 12.507312 -0.959325 2.027066 -11.964699 -10.483447 6.349014 -2.106305 7.442414 -0.000001 0.000002 -0.000004 8.135101 -1.632513 3.708878 9.023748 2.907329 14.033773 -0.887274 -6.882562 -0.887273 0.000002 0.000001 0.000003 
-2.828965 102.914703 -7.938322 -13.900240 -2.170158 -9.468679 11.941383 -2.034025 4.071534 2.290814 -0.358631 2.555420 -1.975036 3.157100 -0.350934 6.073940 1.668762 -0.476695 -0.000002 -0.000000 0.000001 3.696950 -4.337541 -1.788113 3.307090 3.867376 -0.146022 40.165511 4.558195 -4.812316 0.000002 -0.000001 0.000003 0.558624 5.263269 8.636948 2.871091 -2.058936 11.610289 58.346030 15.032167 2.469659 0.000001 -0.000002 0.000003 -17.178267 13.012402 -0.490437 2.063132 -12.442167 -11.146912 6.743403 -1.977909 7.752717 -0.000001 0.000001 -0.000002 8.171397 -1.618172 3.649674 9.360840 2.934784 14.052657 -0.860266 -7.211190 -0.922810 -0.000001 0.000000 -0.000003 
-2.890404 102.854500 -7.979868 -13.956459 -2.149432 -9.478265 11.878933 -2.020194 3.985116 2.910629 -0.230288 2.593658 -2.498038 3.140817 -0.334198 6.443741 1.800146 -0.435301 -0.000001 0.000002 0.000001 3.809292 -4.549528 -1.912694 3.271244 3.872827 -0.104065 40.034816 4.179891 -4.494427 0.000006 -0.000005 0.000006 0.600422 5.290528 8.517179 2.912107 -2.237643 11.891173 58.684084 15.260451 2.286463 0.000001 0.000003 -0.000003 -17.294958 13.084823 -0.388063 1.945034 -12.476197 -11.196099 6.783551 -1.985412 7.766024 0.000002 -0.000002 -0.000001 8.262777 -1.633841 3.687537 9.323406 3.009641 14.109293 -0.755841 -7.038618 -0.841165 0.000000 0.000000 -0.000000 
-2.953755 102.798447 -8.021791 -14.019055 -2.392832 -9.505795 12.067843 -2.048768 3.751508 2.498028 -0.312242 2.553321 -2.143388 3.366231 -0.207933 6.610227 1.789609 -0.483828 0.000000 -0.000005 -0.000001 3.806811 -4.628961 -2.078914 3.079947 3.905216 -0.077456 40.459336 4.048805 -4.609261 0.000002 -0.000002 0.000005 0.564508 5.481806 8.584080 2.785962 -2.562509 11.949940 59.308746 15.560351 2.165996 0.000002 -0.000004 0.000002 -17.578562 13.335650 -0.120388 2.032311 -12.366904 -11.070535 6.863095 -1.799443 7.789009 -0.000001 -0.000003 0.000001 8.294001 -1.657498 3.743623 9.560883 3.026820 14.075487 -0.888185 -6.676083 -0.871477 0.000001 0.000002 0.000001 
-3.011516 102.750679 -8.071127 -14.040586 -2.089702 -9.551361 12.327161 -2.080834 3.795445 2.403527 -0.350001 2.592107 -2.277655 3.323565 -0.199023 6.705944 1.671957 -0.396421 -0.000000 -0.000002 -0.000000 3.788827 -4.678059 -2.222665 3.007540 3.812209 -0.073545 40.676700 3.873147 -4.459933 0.000001 -0.000003 0.000003 0.471451 5.430252 8.587340 2.679128 -2.411630 11.852480 59.700525 15.516130 2.629311 -0.000001 -0.000003 -0.000000 -17.140261 12.981404 -0.428660 2.126996 -12.106498 -10.820586 6.570098 -2.131107 7.710259 0.000002 0.000000 -0.000002 8.207045 -1.662405 3.822819 9.232009 2.848545 14.229607 -1.074907 -6.964742 -0.927307 0.000003 0.000000 -0.000003 
-3.071813 102.704346 -8.122578 -13.942543 -2.476297 -9.511185 11.841496 -2.011544 3.502047 2.900110 -0.254444 2.535229 -2.385957 3.727820 -0.095439 6.820870 1.422898 -0.159583 -0.000001 -0.000002 -0.000000 3.757818 -4.986356 -2.132214 2.746991 4.181361 -0.116850 41.258656 3.488267 -4.298977 0.000004 -0.000003 0.000003 0.241581 5.229629 8.599598 2.386647 -2.485669 11.956956 60.547216 15.821981 2.765223 -0.000000 0.000001 0.000002 -17.183458 13.072443 -0.531310 2.182422 -12.307476 -10.783898 6.675475 -2.036417 7.679577 0.000003 -0.000001 -0.000000 7.901069 -1.676143 3.834785 9.398498 2.896872 14.072958 -1.398401 -6.353016 -0.975497 0.000001 0.000000 -0.000000 
-3.124331 102.660278 -8.166027 -13.867997 -2.575353 -9.555885 11.429314 -1.952712 3.629916 3.666543 0.002528 2.370365 -2.822422 3.376935 -0.045593 6.607265 1.433772 -0.142966 -0.000003 0.000002 0.000001 3.722581 -4.628661 -2.111256 2.926672 4.070479 0.038620 40.846174 3.606217 -4.140430 0.000001 -0.000003 0.000003 0.388756 5.145066 8.517636 2.590237 -2.180939 11.832621 59.535153 15.421812 2.636869 -0.000000 0.000003 -0.000002 -17.210402 13.083752 -0.579850 2.122344 -11.912119 -10.372446 6.519663 -2.246256 7.596935 -0.000001 0.000002 -0.000001 7.995522 -1.667718 3.839568 9.500768 2.991596 13.955201 -1.070258 -6.674116 -0.936090 0.000002 0.000001 -0.000002 
